<?xml version="1.0" encoding="UTF-8" standalone="no"?>
<!DOCTYPE svg PUBLIC "-//W3C//DTD SVG 1.1//EN" "http://www.w3.org/Graphics/SVG/1.1/DTD/svg11.dtd">
<svg width="100%" height="100%" viewBox="0 0 1024 1024" version="1.1" xmlns="http://www.w3.org/2000/svg" xmlns:xlink="http://www.w3.org/1999/xlink" xml:space="preserve" xmlns:serif="http://www.serif.com/" style="fill-rule:evenodd;clip-rule:evenodd;stroke-linecap:round;stroke-linejoin:round;stroke-miterlimit:1.5;">
    <g id="Cup">
        <path d="M708.275,609.768c12.61,10.179 28.703,16.285 46.224,16.285c40.423,-0 73.242,-32.501 73.242,-72.534c0,-40.032 -32.819,-72.533 -73.242,-72.533c-9.257,-0 -18.114,1.704 -26.27,4.813" style="fill:none;stroke:white;stroke-width:51.2px;"/>
        <path d="M460.808,800.986c-160.129,-0 -290.133,-124.269 -290.133,-277.333c-0,-34.683 -0.036,-46.175 -0,-95.014c0.067,-92.477 166.682,-122.586 281.6,-122.586l17.066,-0c114.906,-0 281.501,30.109 281.569,122.586c0.035,48.839 -0,60.331 -0,95.014c-0,153.064 -129.991,277.333 -290.102,277.333Zm-0,-51.2c131.234,-0 238.902,-100.676 238.902,-226.133c-0,-34.67 0.035,-46.156 -0,-94.977c-0.014,-18.303 -17.734,-27.626 -37.204,-37.076c-52.853,-25.65 -131.431,-34.347 -193.165,-34.347l-17.066,-0c-61.742,-0 -140.331,8.697 -193.191,34.348c-19.473,9.45 -37.196,18.772 -37.209,37.075c-0.036,48.821 -0,60.307 -0,94.977c-0,125.459 107.683,226.133 238.933,226.133Z" style="fill:white;"/>
        <path d="M460.808,800.986c-160.129,-0 -290.133,-124.269 -290.133,-277.333c-0,-34.683 -0.036,5.025 -0,-43.814c0.067,-92.477 166.682,-122.586 281.6,-122.586l17.066,-0c114.906,-0 281.501,30.109 281.569,122.586c0.035,48.839 -0,9.131 -0,43.814c-0,153.064 -129.991,277.333 -290.102,277.333Z" style="fill:none;"/>
        <clipPath id="_clip1">
            <path d="M460.808,800.986c-160.129,-0 -290.133,-124.269 -290.133,-277.333c-0,-34.683 -0.036,5.025 -0,-43.814c0.067,-92.477 166.682,-122.586 281.6,-122.586l17.066,-0c114.906,-0 281.501,30.109 281.569,122.586c0.035,48.839 -0,9.131 -0,43.814c-0,153.064 -129.991,277.333 -290.102,277.333Z"/>
        </clipPath>
        <g clip-path="url(#_clip1)">
            <path d="M460.808,41.519c160.111,0 290.102,124.269 290.102,277.334c-0,34.683 0.035,46.174 -0,95.014c-0.068,92.476 -166.663,122.586 -281.569,122.586l-17.066,-0c-114.918,-0 -281.533,-30.11 -281.6,-122.586c-0.036,-48.84 -0,-60.331 -0,-95.014c-0,-153.065 130.004,-277.334 290.133,-277.334Zm-0,51.2c-131.25,0 -238.933,100.674 -238.933,226.134c-0,34.669 -0.036,46.156 -0,94.976c0.013,18.303 17.736,27.625 37.209,37.075c52.86,25.651 131.449,34.349 193.191,34.349l17.066,-0c61.734,-0 140.312,-8.697 193.165,-34.348c19.47,-9.45 37.19,-18.773 37.204,-37.076c0.035,-48.82 -0,-60.307 -0,-94.976c-0,-125.458 -107.668,-226.134 -238.902,-226.134Z" style="fill:white;"/>
        </g>
    </g>
</svg>
